
<svg xmlns="http://www.w3.org/2000/svg" width="59.69" height="44.086" viewBox="0 0 59.69 44.086">
  <path id="Ausschluss_1" data-name="Ausschluss 1" d="M29.842,44.086a5.8,5.8,0,0,1-1.449-.184L8.23,38.579a3.106,3.106,0,0,1-2.257-3.051V18.012L18.75,21.869a4.074,4.074,0,0,0,1.24.187,4.491,4.491,0,0,0,3.87-2.313L29.848,9.254l6,10.489a4.47,4.47,0,0,0,3.861,2.3,4.083,4.083,0,0,0,1.24-.187l12.776-3.847V35.528a3.122,3.122,0,0,1-2.256,3.051L31.284,43.9A5.72,5.72,0,0,1,29.842,44.086Zm-6.908-14.52a.934.934,0,0,0,0,1.868h5.632v5.632a.934.934,0,0,0,1.868,0V31.434h5.632a.934.934,0,1,0,0-1.868H30.434V23.934a.934.934,0,0,0-1.868,0v5.632ZM39.71,18.9A1.523,1.523,0,0,1,38.4,18.12L29.848,3.153,53.172.014a1.447,1.447,0,0,1,.2-.013A1.51,1.51,0,0,1,54.73.889l4.8,10.116a1.7,1.7,0,0,1,.012,1.406,1.568,1.568,0,0,1-.963.868L40.125,18.838A1.454,1.454,0,0,1,39.71,18.9Zm-19.735-.01a1.454,1.454,0,0,1-.415-.061L1.1,13.269a1.546,1.546,0,0,1-.96-.862,1.678,1.678,0,0,1,.019-1.4L4.965.889A1.494,1.494,0,0,1,6.513.014L29.848,3.153,21.286,18.11A1.523,1.523,0,0,1,19.975,18.889Z" transform="translate(0 0)" fill="#1c4046"/>
</svg>
