<svg xmlns="http://www.w3.org/2000/svg" width="57.289" height="57.289" viewBox="0 0 57.289 57.289">
  <path id="Icon_awesome-recycle" data-name="Icon awesome-recycle" d="M20.651,29.3a1.792,1.792,0,0,1-2.693,1.921L13.4,28.378,7.708,37.486a3.587,3.587,0,0,0,3.035,5.481H16.56A1.343,1.343,0,0,1,17.9,44.309v4.476a1.343,1.343,0,0,1-1.343,1.343H10.755A10.748,10.748,0,0,1,1.646,33.693l5.687-9.107L2.775,21.739a1.792,1.792,0,0,1,.546-3.263l12.335-2.848A1.79,1.79,0,0,1,17.8,16.97ZM31.679,8.838l4.62,7.393L31.741,19.08a1.792,1.792,0,0,0,.546,3.263L44.621,25.19a1.79,1.79,0,0,0,2.147-1.342l2.848-12.335a1.792,1.792,0,0,0-2.693-1.921L42.37,12.438,37.753,5.044a10.747,10.747,0,0,0-18.218,0l-2.01,3.219a1.343,1.343,0,0,0,.427,1.85l3.8,2.372a1.343,1.343,0,0,0,1.85-.427l2.01-3.216A3.584,3.584,0,0,1,31.679,8.838ZM55.643,33.693l-3.079-4.931a1.343,1.343,0,0,0-1.85-.428L46.925,30.7a1.343,1.343,0,0,0-.427,1.85l3.084,4.936a3.587,3.587,0,0,1-3.036,5.478H35.806V37.6a1.792,1.792,0,0,0-3.056-1.266L23.8,45.281a1.79,1.79,0,0,0,0,2.532l8.951,8.95A1.791,1.791,0,0,0,35.806,55.5v-5.37H46.534A10.748,10.748,0,0,0,55.643,33.693Z" transform="translate(0 0)" fill="#ffcd00"/>
</svg>
