<svg xmlns="http://www.w3.org/2000/svg" width="20.625" height="30" viewBox="0 0 20.625 30">
  <defs>
    <style>
      .cls-1 {
        fill: #fff;
      }
    </style>
  </defs>
  <path id="Icon_awesome-lightbulb" data-name="Icon awesome-lightbulb" class="cls-1" d="M5.628,26.621a1.876,1.876,0,0,0,.314,1.037l1,1.505A1.874,1.874,0,0,0,8.5,30H12.12a1.874,1.874,0,0,0,1.561-.837l1-1.505A1.874,1.874,0,0,0,15,26.621l0-2.247H5.625l0,2.247ZM0,10.312A10.255,10.255,0,0,0,2.552,17.1a16.838,16.838,0,0,1,3.059,5.358c0,.015,0,.03.006.046h9.389c0-.015,0-.03.006-.046A16.838,16.838,0,0,1,18.072,17.1,10.31,10.31,0,1,0,0,10.312ZM10.312,5.625a4.693,4.693,0,0,0-4.687,4.687.937.937,0,1,1-1.875,0A6.57,6.57,0,0,1,10.312,3.75a.937.937,0,0,1,0,1.875Z" transform="translate(0 0)"/>
</svg>
