<svg xmlns="http://www.w3.org/2000/svg" width="59.691" height="44.086" viewBox="0 0 59.691 44.086">
  <path id="Icon_awesome-box-open" data-name="Icon awesome-box-open" d="M39.7,24.294a4.477,4.477,0,0,1-3.861-2.3l-6-10.49-5.987,10.49a4.493,4.493,0,0,1-3.87,2.313,4.081,4.081,0,0,1-1.24-.187L5.97,20.259V37.775a3.112,3.112,0,0,0,2.257,3.051L28.39,46.149a5.755,5.755,0,0,0,2.891,0l20.182-5.324a3.129,3.129,0,0,0,2.257-3.051V20.259L40.943,24.107A4.081,4.081,0,0,1,39.7,24.294ZM59.529,13.253l-4.8-10.116a1.506,1.506,0,0,0-1.557-.876L29.844,5.4,38.4,20.367a1.5,1.5,0,0,0,1.725.718l18.456-5.56a1.646,1.646,0,0,0,.951-2.273ZM4.962,3.137.16,13.253A1.629,1.629,0,0,0,1.1,15.516l18.456,5.56a1.5,1.5,0,0,0,1.725-.718L29.844,5.4,6.511,2.261A1.507,1.507,0,0,0,4.962,3.137Z" transform="translate(0.003 -2.247)" fill="#ffcd00"/>
</svg>
