<svg xmlns="http://www.w3.org/2000/svg" width="35" height="24.499" viewBox="0 0 35 24.499">
  <defs>
    <style>
      .cls-1 {
        fill: #fff;
      }
    </style>
  </defs>
  <path id="Icon_awesome-box-open" data-name="Icon awesome-box-open" class="cls-1" d="M23.278,14.5a2.651,2.651,0,0,1-2.264-1.28L17.5,7.39l-3.511,5.829A2.66,2.66,0,0,1,11.718,14.5a2.515,2.515,0,0,1-.727-.1L3.5,12.257V21.99a1.744,1.744,0,0,0,1.323,1.7l11.823,2.958a3.555,3.555,0,0,0,1.7,0l11.834-2.958a1.754,1.754,0,0,0,1.323-1.7V12.257l-7.492,2.138A2.515,2.515,0,0,1,23.278,14.5ZM34.9,8.363,32.088,2.742a.893.893,0,0,0-.913-.487L17.5,4l5.015,8.317a.9.9,0,0,0,1.012.4l10.822-3.09A.9.9,0,0,0,34.9,8.363Zm-32-5.622L.092,8.363A.891.891,0,0,0,.645,9.621l10.822,3.09a.9.9,0,0,0,1.012-.4L17.5,4,3.816,2.255a.894.894,0,0,0-.908.487Z" transform="translate(0.003 -2.247)"/>
</svg>
