<svg xmlns="http://www.w3.org/2000/svg" width="20" height="20" viewBox="0 0 20 20">
  <defs>
    <style>
      .cls-1 {
        fill: #2b4a3a;
      }
    </style>
  </defs>
  <path id="Icon_awesome-recycle" data-name="Icon awesome-recycle" class="cls-1" d="M7.209,10.231a.625.625,0,0,1-.94.671L4.678,9.907l-1.987,3.18A1.252,1.252,0,0,0,3.75,15H5.781a.469.469,0,0,1,.469.469v1.562a.469.469,0,0,1-.469.469H3.755a3.752,3.752,0,0,1-3.18-5.737L2.56,8.583.969,7.589A.625.625,0,0,1,1.16,6.45l4.306-.994a.625.625,0,0,1,.75.468Zm3.85-7.145,1.613,2.581-1.591.994A.625.625,0,0,0,11.272,7.8l4.306.994a.625.625,0,0,0,.75-.468l.994-4.306a.625.625,0,0,0-.94-.671l-1.589.993L13.18,1.761a3.752,3.752,0,0,0-6.36,0l-.7,1.124a.469.469,0,0,0,.149.646l1.325.828a.469.469,0,0,0,.646-.149l.7-1.123A1.251,1.251,0,0,1,11.059,3.085Zm8.366,8.677-1.075-1.721a.469.469,0,0,0-.646-.149l-1.323.827a.469.469,0,0,0-.149.646l1.077,1.723A1.252,1.252,0,0,1,16.249,15H12.5V13.126a.625.625,0,0,0-1.067-.442L8.308,15.808a.625.625,0,0,0,0,.884l3.125,3.125a.625.625,0,0,0,1.067-.442V17.5h3.745A3.752,3.752,0,0,0,19.425,11.762Z" transform="translate(0 0)"/>
</svg>
